<mxfile host="app.diagrams.net" modified="2020-11-29T06:59:31.669Z" agent="5.0 (Windows)" etag="DKCB4xByutM1azP6XGsq" version="13.10.4" type="github">
  <diagram id="REOELQYu35U8tUqML4uu" name="Page-1">
    <mxGraphModel dx="1038" dy="547" grid="1" gridSize="10" guides="1" tooltips="1" connect="1" arrows="1" fold="1" page="1" pageScale="1" pageWidth="1169" pageHeight="827" math="0" shadow="0">
      <root>
        <mxCell id="0" />
        <mxCell id="1" parent="0" />
        <mxCell id="nr64mT80ZBLKgg4U0c5f-5" value="Recruitment and Selection" style="swimlane;" vertex="1" parent="1">
          <mxGeometry x="10" y="10" width="1150" height="810" as="geometry" />
        </mxCell>
      </root>
    </mxGraphModel>
  </diagram>
</mxfile>
